<svg xmlns="http://www.w3.org/2000/svg"  viewBox="0 0 64 64" width="64px" height="64px"><linearGradient id="EhRmCrLaqq8rdZXrohxDga" x1="29.055" x2="21.084" y1="44.827" y2="58.369" gradientUnits="userSpaceOnUse"><stop offset="0" stop-color="#6dc7ff"/><stop offset="1" stop-color="#e6abff"/></linearGradient><path fill="url(#EhRmCrLaqq8rdZXrohxDga)" d="M32.918,52.021c-0.048,0.042-4.235,3.843-9.145,6.883L23.76,58.9	c-2.69-5.11-4.37-10.51-4.39-10.57l-1.31-4.24l-1.56,5.12c0,0,2.37,7.69,6.15,13.78l0.005,0.001	c6.347-3.331,12.29-8.756,12.29-8.756l1.253-5.204L32.918,52.021z"/><linearGradient id="EhRmCrLaqq8rdZXrohxDgb" x1="30.61" x2="30.61" y1="16.181" y2="52.057" gradientUnits="userSpaceOnUse"><stop offset="0" stop-color="#6dc7ff"/><stop offset="1" stop-color="#e6abff"/></linearGradient><polyline fill="url(#EhRmCrLaqq8rdZXrohxDgb)" points="38.761,18.156 31.097,49.026 25.633,52.057 25.63,52.056 22.459,46.673 31.512,16.181"/><linearGradient id="EhRmCrLaqq8rdZXrohxDgc" x1="35.728" x2="35.728" y1="12" y2="18" gradientUnits="userSpaceOnUse"><stop offset="0" stop-color="#6dc7ff"/><stop offset="1" stop-color="#e6abff"/></linearGradient><path fill="url(#EhRmCrLaqq8rdZXrohxDgc)" d="M36.529,12.047c-1.074-0.291-2.302,0.795-2.745,2.425c-0.442,1.631,0.069,3.189,1.143,3.48	c1.073,0.291,2.302-0.795,2.745-2.425C38.114,13.897,37.603,12.338,36.529,12.047z"/><linearGradient id="EhRmCrLaqq8rdZXrohxDgd" x1="31.015" x2="31.015" y1="0" y2="63.995" gradientUnits="userSpaceOnUse"><stop offset="0" stop-color="#1a6dff"/><stop offset="1" stop-color="#c822ff"/></linearGradient><path fill="url(#EhRmCrLaqq8rdZXrohxDgd)" d="M42.845,12.227c-0.598-0.352-1.415-0.715-2.437-1.084l2.302-8.588	c0.143-0.532-0.172-1.079-0.703-1.224l-4.758-1.296c-0.527-0.145-1.079,0.167-1.227,0.698l-2.373,8.569C32.582,9.102,31.693,9,31,9	c-5.301,0-6.896,3.892-6.999,5.95c-0.014,0.273,0.086,0.541,0.274,0.739C24.464,15.888,24.727,16,25,16h0.558L15.543,48.918	c-0.058,0.191-0.058,0.395,0.001,0.586c0.099,0.318,2.435,7.826,6.214,13.943c0.127,0.25,0.358,0.442,0.645,0.516	c0.082,0.021,0.165,0.031,0.248,0.031c0.18,0,0.355-0.049,0.508-0.139c6.373-3.354,12.215-8.658,12.461-8.882	c0.147-0.135,0.252-0.311,0.299-0.505l8.066-33.45l0.482,0.284c0.155,0.091,0.33,0.138,0.507,0.138c0.092,0,0.185-0.013,0.274-0.039	c0.264-0.075,0.484-0.255,0.611-0.498C46.813,19.079,47.413,14.916,42.845,12.227z M27.65,16h0.129c1.027,0,1.861,0.1,2.665,0.27	L21.5,46.388c-0.079,0.266-0.044,0.553,0.098,0.792l2.957,5.021l-2.239,8.216c-2.608-4.787-4.359-9.954-4.768-11.213L27.65,16z M34.381,19.875c0.003,0.001,0.005,0.003,0.008,0.004l0.009,0.002c0.009,0.002,0.017,0.005,0.025,0.007	c0.01,0.002,0.019,0.001,0.029,0.004c1.01,0.256,2.076,0.035,3-0.614l-7.22,29.085l-4.233,2.348l-2.457-4.171l8.531-28.727	C32.545,18.853,33.365,19.591,34.381,19.875z M34.046,53.698c-0.991,0.878-5.124,4.445-9.802,7.249l2.24-8.218l5.098-2.828	c0.242-0.135,0.418-0.364,0.485-0.634l7.57-30.492c0.78,0.262,1.548,0.599,2.432,1.119l0.113,0.066L34.046,53.698z M44.432,18.963	l-1.346-0.793c-1.793-1.055-3.208-1.494-4.911-1.858c-0.07-0.015-0.141-0.022-0.21-0.022c-0.335,0-0.653,0.168-0.84,0.458	c-0.19,0.294-0.391,0.535-0.596,0.715c-0.51,0.448-1.096,0.629-1.605,0.488c-0.511-0.139-0.925-0.59-1.137-1.235	c-0.085-0.26-0.136-0.568-0.149-0.917c-0.017-0.416-0.289-0.778-0.684-0.909C31.302,14.34,29.86,14,27.778,14h-1.562	c0.403-1.213,1.548-3,4.783-3c0.732,0,1.821,0.154,3.15,0.445c0.519,0.111,1.036-0.198,1.178-0.71l0.717-2.588l0.021,0.006	c0.085,0.023,0.173,0.034,0.26,0.034c0.174,0,0.347-0.045,0.499-0.134c0.23-0.132,0.398-0.351,0.467-0.607L37.55,6.48	c0.143-0.532-0.172-1.08-0.704-1.224l0.839-3.03L40.521,3l-0.813,3.034c-0.526-0.143-1.076,0.171-1.222,0.702L38.222,7.7	c-0.07,0.256-0.035,0.53,0.098,0.761c0.132,0.23,0.351,0.399,0.606,0.468l0.005,0.001l-0.696,2.597	c-0.138,0.513,0.15,1.044,0.654,1.209c1.293,0.424,2.311,0.844,2.941,1.215C44.62,15.592,44.698,17.714,44.432,18.963z"/></svg>