<svg xmlns="http://www.w3.org/2000/svg" viewBox="9 9 46 46"><linearGradient id="BrIl0b1CldBe3hxCjYpUfa" x1="32" x2="32" y1="45.073" y2="22.073" gradientTransform="matrix(1 0 0 -1 0 64)" gradientUnits="userSpaceOnUse"><stop offset="0" stop-color="#6dc7ff" style="--darkreader-inline-stopcolor: #00558b;" data-darkreader-inline-stopcolor=""/><stop offset="1" stop-color="#e6abff" style="--darkreader-inline-stopcolor: #470065;" data-darkreader-inline-stopcolor=""/></linearGradient><path fill="url(#BrIl0b1CldBe3hxCjYpUfa)" d="M39.897,37.649c1.214-1.865,1.295-2.669,1.676-3.857c0.535-1.668-0.179-3.486-1.694-4.307 l-7.873-4.268l-7.873,4.268c-1.515,0.822-2.229,2.639-1.694,4.307c0.381,1.188,0.462,1.992,1.676,3.857c0,0-3.642-2.486-3.035-9.946 c0,0,8.498-4.351,10.926-8.703c2.428,4.351,10.926,8.703,10.926,8.703C43.539,35.162,39.897,37.649,39.897,37.649z M38.968,32.6 c0,0-5.415-2.8-6.962-5.6c-1.547,2.8-6.962,5.6-6.962,5.6c-0.387,4.8,1.934,6.4,1.934,6.4c-0.774-1.2-0.825-1.718-1.068-2.482 c-0.341-1.074,0.114-2.243,1.08-2.772L32.006,31l5.016,2.747c0.966,0.529,1.42,1.698,1.08,2.772 C37.859,37.282,37.807,37.8,37.034,39C37.034,39,39.354,37.4,38.968,32.6z M35.986,36.733c0,0-3.096-1.867-3.981-3.733 c-0.885,1.867-3.981,3.733-3.981,3.733c-0.22,3.2,1.107,4.267,1.107,4.267c-0.442-0.8-0.472-1.145-0.611-1.655 c-0.195-0.716,0.065-1.495,0.617-1.848l2.868-1.831l2.868,1.831c0.552,0.352,0.812,1.132,0.617,1.848 c-0.139,0.51-0.168,0.855-0.611,1.655C34.881,41,36.207,39.933,35.986,36.733z M17.09,37.03c-0.62-1.87-0.62-3.11-0.62-3.11 l3.46-2.08c-0.08-0.55-0.14-1.14-0.16-1.78C17,32,13,33,13,33c2,1,4.71,8.38,4.71,8.38L20,42C20,42,17.71,38.89,17.09,37.03z M19.57,35.78h1.6c-0.22-0.42-0.43-0.88-0.61-1.41c-0.11,0.06-0.24,0.12-0.37,0.17c-0.93,0.38-2.48,0.62-2.48,0.62 c1.24,1.25,2.48,4.35,2.48,4.35l2.49,0.63C21.44,39.51,19.57,35.78,19.57,35.78z M44,42l2.29-0.62c0,0,2.71-7.38,4.71-8.38 c0,0-4-1-6.77-2.94c-0.02,0.64-0.08,1.23-0.16,1.78l3.46,2.08c0,0,0,1.24-0.62,3.11C46.29,38.89,44,42,44,42z M41.32,40.14 l2.49-0.63c0,0,1.24-3.1,2.48-4.35c0,0-1.55-0.24-2.48-0.62c-0.13-0.05-0.26-0.11-0.37-0.17c-0.18,0.53-0.39,0.99-0.61,1.41h1.6 C44.43,35.78,42.56,39.51,41.32,40.14z"/><linearGradient id="BrIl0b1CldBe3hxCjYpUfb" x1="32" x2="32" y1="477" y2="431" gradientTransform="matrix(1 0 0 -1 0 486)" gradientUnits="userSpaceOnUse"><stop offset="0" stop-color="#1a6dff" style="--darkreader-inline-stopcolor: #0044bc;" data-darkreader-inline-stopcolor=""/><stop offset="1" stop-color="#c822ff" style="--darkreader-inline-stopcolor: #8a00b8;" data-darkreader-inline-stopcolor=""/></linearGradient><path fill="url(#BrIl0b1CldBe3hxCjYpUfb)" d="M46.694,11C50.171,11,53,13.829,53,17.306v29.389C53,50.171,50.171,53,46.694,53H17.306 C13.829,53,11,50.171,11,46.694V17.306C11,13.829,13.829,11,17.306,11H46.694 M46.694,9H17.306C12.718,9,9,12.718,9,17.306v29.389 C9,51.282,12.718,55,17.306,55h29.389C51.282,55,55,51.282,55,46.694V17.306C55,12.718,51.282,9,46.694,9L46.694,9z"/></svg>