<svg xmlns="http://www.w3.org/2000/svg" width="213" height="166" viewBox="0 0 213 166" version="1.1"><path d="M 40.762 12.707 C 42.006 12.946, 43.806 12.937, 44.762 12.687 C 45.718 12.437, 44.700 12.241, 42.500 12.252 C 40.300 12.263, 39.518 12.468, 40.762 12.707 M 169.762 12.707 C 171.006 12.946, 172.806 12.937, 173.762 12.687 C 174.718 12.437, 173.700 12.241, 171.500 12.252 C 169.300 12.263, 168.518 12.468, 169.762 12.707 M 81.024 78.591 C 82.366 80.191, 85.259 83.075, 87.451 85 L 91.438 88.500 87.662 83.828 C 85.586 81.258, 82.694 78.374, 81.235 77.419 L 78.584 75.681 81.024 78.591 M 12.158 84 C 12.158 85.375, 12.385 85.938, 12.662 85.250 C 12.940 84.563, 12.940 83.438, 12.662 82.750 C 12.385 82.063, 12.158 82.625, 12.158 84 M 91 104.378 C 91 104.585, 91.787 105.373, 92.750 106.128 C 94.336 107.371, 94.371 107.336, 93.128 105.750 C 91.821 104.084, 91 103.555, 91 104.378 M 26.453 109.250 L 22.500 113.500 26.750 109.547 C 30.702 105.871, 31.460 105, 30.703 105 C 30.540 105, 28.627 106.912, 26.453 109.250 M 45.750 153.706 C 46.987 153.944, 49.013 153.944, 50.250 153.706 C 51.487 153.467, 50.475 153.272, 48 153.272 C 45.525 153.272, 44.513 153.467, 45.750 153.706 M 163.750 153.706 C 164.988 153.944, 167.012 153.944, 168.250 153.706 C 169.488 153.467, 168.475 153.272, 166 153.272 C 163.525 153.272, 162.512 153.467, 163.750 153.706" stroke="none" fill="#080404" fill-rule="evenodd"/><path d="M 13 2.152 C 8.956 3.309, 3.633 8.058, 2.022 11.946 C 1.233 13.852, 0.996 35.010, 1.205 84.928 L 1.500 155.225 6.347 159.613 L 11.193 164 107.055 164 L 202.916 164 206.847 160.250 C 209.196 158.010, 211.224 154.889, 211.884 152.500 C 212.639 149.765, 212.991 127.334, 212.994 81.566 C 213 15.905, 212.961 14.550, 210.929 10.353 C 209.713 7.842, 207.339 5.131, 205.179 3.788 L 201.500 1.500 109 1.325 C 49.689 1.213, 15.244 1.509, 13 2.152 M 27.296 12.946 C 19.568 13.297, 14.636 13.957, 13.850 14.746 C 12.443 16.158, 11.730 73.471, 12.862 94.190 L 13.500 105.880 29.500 90.425 C 49.328 71.273, 52.060 69.490, 61.500 69.530 C 70.414 69.568, 74.215 71.544, 83.434 80.936 C 87.247 84.821, 91.072 87.995, 91.934 87.989 C 92.795 87.983, 97.550 84.153, 102.500 79.476 C 114.010 68.602, 118.363 65.959, 125.880 65.277 C 135.369 64.417, 140.008 67.084, 157.999 83.741 L 161.500 86.983 181.876 86.991 L 202.251 87 201.823 51.381 C 201.438 19.313, 201.226 15.638, 199.695 14.519 C 198.618 13.732, 192.586 13.070, 183.247 12.715 C 164.862 12.015, 43.837 12.195, 27.296 12.946 M 162.798 28.362 C 150.536 33.804, 148.180 49.805, 158.330 58.716 C 167.265 66.561, 181.335 63.278, 186.234 52.205 C 189.893 43.932, 187.106 35.256, 179.079 29.932 C 174.234 26.719, 167.880 26.106, 162.798 28.362 M 165.073 41.635 C 162.524 44.875, 162.485 46.142, 164.844 49.056 C 166.924 51.625, 171.922 52.139, 174.447 50.044 C 175.301 49.335, 176 47.305, 176 45.533 C 176 39.185, 168.972 36.678, 165.073 41.635 M 122.727 77.841 C 120.290 78.805, 105.224 91.922, 103.007 95.010 L 101.206 97.519 110.097 107.010 C 114.986 112.229, 119.268 117.531, 119.612 118.790 C 120.337 121.447, 117.667 125, 114.945 125 C 113.208 125, 104.272 117.005, 83.665 97.012 C 66.137 80.007, 62.433 78.372, 53.946 83.891 C 51.501 85.481, 41.018 95.182, 30.651 105.449 L 11.802 124.117 12.151 137.140 C 12.446 148.144, 12.772 150.361, 14.255 151.445 C 17 153.451, 43.819 153.988, 124.787 153.656 C 191.860 153.381, 198.216 153.213, 199.755 151.674 C 201.221 150.208, 201.487 146.672, 201.836 123.997 L 202.237 98 178.668 98 L 155.099 98 149.280 92.200 C 138.373 81.326, 132.337 76.992, 128.211 77.070 C 126.170 77.109, 123.702 77.456, 122.727 77.841" stroke="none" fill="#040404" fill-rule="evenodd"/></svg>